# xmcd
#
# Track frame offsets: 
#        150
#        41080
#        74647
#        115760
#        148247
#        174402
#        203110
#        237920
#
# Disc length: 3574 seconds
#
# Revision: 2
# Processed by: cddbd v1.5.1PL0 Copyright (c) Steve Scherf et al.
# Submitted via: ExactAudioCopy v0.95a5
#
DISCID=770df408
DTITLE=Max Folmer - Lotus Moon
DYEAR=1998
DGENRE=New Age
TTITLE0=United
TTITLE1=World One
TTITLE2=The Creation
TTITLE3=Global World
TTITLE4=Pentagram
TTITLE5=Shadows of Light
TTITLE6=Lotus Moon
TTITLE7=United (Reprise)
EXTD=
EXTT0=
EXTT1=
EXTT2=
EXTT3=
EXTT4=
EXTT5=
EXTT6=
EXTT7=
PLAYORDER=
